# xmcd
#
# Track frame offsets: 
#        150
#        14045
#        30002
#        40578
#        53904
#        66210
#        82934
#        96108
#        108503
#        122066
#        135472
#        147733
#        162163
#        176892
#        188285
#        201804
#        214619
#        230999
#        247569
#        261464
#
# Disc length: 3672 seconds
#
# Revision: 0
# Processed by: cddbd v1.4PL0 Copyright (c) Steve Scherf et al.
# Submitted via: ExactAudioCopy v0.90b4
#
DISCID=120e5614
DTITLE=John Anderson - Greatest Hits\\ Wild and Blue
DYEAR=2002
DGENRE=Country
TTITLE0=Swingin
TTITLE1=I just came home to count the memories
TTITLE2=She just srtarted liking cheatin songs
TTITLE3=1959
TTITLE4=Chicken truck
TTITLE5=I'm just an old chunk of coal (but I'm gonna be a diamond some
TTITLE5=day)
TTITLE6=Would you catch a falling star
TTITLE7=Wild and blue
TTITLE8=Your lying blue eyes
TTITLE9=Black Sheep
TTITLE10=The waltz you saved for me (with Emmylou Harris)
TTITLE11=Honky tonk hearts
TTITLE12=The long black veil (with Merle Haggard)
TTITLE13=She never lookd that good when she was mine
TTITLE14=Disappearing farmer
TTITLE15=A honky tonk saturday night
TTITLE16=Going down hill
TTITLE17=The price of a thin silver dollar
TTITLE18=Swingin
TTITLE19=If a broken heart could kill
EXTD=(c)MCA
EXTT0=
EXTT1=
EXTT2=
EXTT3=
EXTT4=
EXTT5=
EXTT6=
EXTT7=
EXTT8=
EXTT9=
EXTT10=
EXTT11=
EXTT12=
EXTT13=
EXTT14=
EXTT15=
EXTT16=
EXTT17=
EXTT18=
EXTT19=
PLAYORDER=
